<svg xmlns="http://www.w3.org/2000/svg" width="149.934" height="32.798" viewBox="0 0 149.934 32.798"><g transform="translate(-6922.351 -10941.4)"><path d="M6937.244,11062.536h-4.814v1.72q0,8.6-2.408,12.967h7.223Zm-10.009-3.817h15.341v18.5h2.2v9.528h-4.85v-5.709H6927.2v5.709h-4.85v-9.528h1.926a16.1,16.1,0,0,0,2.287-5.468,47.753,47.753,0,0,0,.671-9.426Zm133.08,22.323h-5.744v-16.648h4.644v11.729l7.326-11.729h5.744v16.648h-4.644V11069Zm-14.688-5.125v-6.294a2.345,2.345,0,0,0-.687-1.91,6.944,6.944,0,0,0-5.5,0,2.345,2.345,0,0,0-.687,1.91v6.294a2.166,2.166,0,0,0,.67,1.821,7.677,7.677,0,0,0,5.537,0A2.164,2.164,0,0,0,7045.627,11075.917Zm5.022-5.5v4.919a6.752,6.752,0,0,1-.516,2.769,4.91,4.91,0,0,1-1.272,1.788,5.254,5.254,0,0,1-1.979.981,12.152,12.152,0,0,1-2.235.43q-1.015.085-2.46.086t-2.458-.086a12.161,12.161,0,0,1-2.236-.43,5.254,5.254,0,0,1-1.979-.981,4.91,4.91,0,0,1-1.272-1.788,6.752,6.752,0,0,1-.516-2.769v-4.919a7.332,7.332,0,0,1,.533-2.941,5.038,5.038,0,0,1,1.307-1.874,5.428,5.428,0,0,1,2.013-1.015,11.654,11.654,0,0,1,2.219-.447q.98-.085,2.39-.086t2.391.086a11.669,11.669,0,0,1,2.219.447,5.443,5.443,0,0,1,2.013,1.015,5.038,5.038,0,0,1,1.307,1.874A7.332,7.332,0,0,1,7050.649,11070.413Zm-25.04,5.744v-.62a1.231,1.231,0,0,0-.792-1.272,9.228,9.228,0,0,0-2.924-.309h-2.648v3.989h2.478a7.446,7.446,0,0,0,3.026-.43A1.426,1.426,0,0,0,7025.609,11076.157Zm-.792-6.982v-.206a1.5,1.5,0,0,0-.172-.792,1.61,1.61,0,0,0-.929-.48,9.064,9.064,0,0,0-2.236-.207h-2.235v3.4h2.339a5.81,5.81,0,0,0,2.632-.377A1.461,1.461,0,0,0,7024.817,11069.175Zm5.745,6.467v1a3.7,3.7,0,0,1-1.651,3.32q-1.651,1.083-5.572,1.084h-9.115v-16.648h8.874a19.8,19.8,0,0,1,3.56.258,3.654,3.654,0,0,1,1.962.877,2.946,2.946,0,0,1,.773,1.238,6.576,6.576,0,0,1,.172,1.687v.584a2.433,2.433,0,0,1-.757,2,5.573,5.573,0,0,1-2.3.964v.137a6.422,6.422,0,0,1,2.939,1.187A2.806,2.806,0,0,1,7030.563,11075.642Zm-25.281.275v-6.294a2.345,2.345,0,0,0-.688-1.91,6.947,6.947,0,0,0-5.5,0,2.348,2.348,0,0,0-.687,1.91v6.294a2.167,2.167,0,0,0,.671,1.821,7.679,7.679,0,0,0,5.538,0A2.169,2.169,0,0,0,7005.281,11075.917Zm5.021-5.5v4.919a6.752,6.752,0,0,1-.517,2.769,4.9,4.9,0,0,1-1.272,1.788,5.249,5.249,0,0,1-1.978.981,12.167,12.167,0,0,1-2.235.43q-1.015.085-2.46.086t-2.459-.086a12.176,12.176,0,0,1-2.236-.43,5.244,5.244,0,0,1-1.977-.981,4.889,4.889,0,0,1-1.273-1.788,6.752,6.752,0,0,1-.517-2.769v-4.919a7.331,7.331,0,0,1,.534-2.941,5.038,5.038,0,0,1,1.307-1.874,5.431,5.431,0,0,1,2.012-1.015,11.684,11.684,0,0,1,2.219-.447q.98-.085,2.391-.086t2.391.086a11.684,11.684,0,0,1,2.219.447,5.443,5.443,0,0,1,2.013,1.015,5.038,5.038,0,0,1,1.307,1.874A7.332,7.332,0,0,1,7010.3,11070.413Zm-20.844,10.629h-4.575v-11.352h-.172l-3.99,11.352h-3.68l-3.853-11.352h-.173v11.352h-4.437v-16.648h6.845l3.646,11.213,3.887-11.213h6.5Zm-29.822-5.125v-6.294a2.348,2.348,0,0,0-.687-1.91,6.947,6.947,0,0,0-5.5,0,2.345,2.345,0,0,0-.687,1.91v6.294a2.167,2.167,0,0,0,.671,1.821,7.677,7.677,0,0,0,5.537,0A2.167,2.167,0,0,0,6959.637,11075.917Zm5.022-5.5v4.919a6.736,6.736,0,0,1-.517,2.769,4.9,4.9,0,0,1-1.272,1.788,5.257,5.257,0,0,1-1.978.981,12.176,12.176,0,0,1-2.236.43q-1.014.085-2.459.086t-2.46-.086a12.158,12.158,0,0,1-2.234-.43,5.247,5.247,0,0,1-1.979-.981,4.9,4.9,0,0,1-1.272-1.788,6.752,6.752,0,0,1-.517-2.769v-4.919a7.315,7.315,0,0,1,.534-2.941,5.027,5.027,0,0,1,1.307-1.874,5.431,5.431,0,0,1,2.012-1.015,11.684,11.684,0,0,1,2.219-.447q.981-.085,2.391-.086t2.391.086a11.684,11.684,0,0,1,2.219.447,5.431,5.431,0,0,1,2.012,1.015,5.038,5.038,0,0,1,1.307,1.874A7.331,7.331,0,0,1,6964.659,11070.413Z" transform="translate(-0.001 -112.552)" fill="#fefefe"/><rect width="124.129" height="1.828" transform="translate(6948.155 10972.369)" fill="#62c9e4"/><path d="M10246.851,10949.4l-1.451-1.445,6.558-6.558,6.557,6.558-1.445,1.445-5.111-5.105Z" transform="translate(-3188.049)" fill="#62c9e4" fill-rule="evenodd"/></g></svg>